:FULLY-SPECIFIED
:FORCE-ALL-JOINTS-BE-3DOF
:DEGREES
1223
root -0.754343 14.6273 -17.0428 372.957 18.2508 362.503
lfemur 11.9919 -2.05867 -10.1951
ltibia 35.5463 0 0
lfoot 3.29667 25.9164 0
ltoes -30.3824 0 0
rfemur -60.4571 -14.848 24.3577
rtibia 79.5307 0 0
rfoot -19.8955 -25.0925 0
rtoes 5.13671 0 0
lowerback 13.1168 0.0225387 -2.48473
upperback -4.0598 -0.409293 -0.0693973
thorax -11.7723 0.00925509 1.43888
lowerneck -1.07609 -7.91835 -9.27132
upperneck -0.0461929 -10.5327 9.58253
head 1.18644 -5.23412 4.18538
lclavicle -6.20235e-15 -1.28433e-15 0
lhumerus -59.0633 -34.2188 115.825
lradius 85.3771 0 0
lwrist 11.9325 0 0
lhand -25.3445 17.6005 0
lfingers 7.12502 0 0
lthumb 1.18008 57.4966 0
rclavicle -6.20235e-15 -1.28433e-15 0
rhumerus 69.2476 5.53963 -24.273
rradius 94.4762 0 0
rwrist -14.46 0 0
rhand -28.4658 -35.0124 0
rfingers 7.12502 0 0
rthumb -1.83619 -64.979 0
1224
root -0.760623 14.6541 -16.8643 372.884 17.6911 362.077
lfemur 10.6091 -2.24128 -10.205
ltibia 39.7866 0 0
lfoot 3.65912 24.7419 0
ltoes -30.8057 0 0
rfemur -60.0484 -14.1285 25.0112
rtibia 79.5859 0 0
rfoot -20.178 -25.6522 0
rtoes 4.66839 0 0
lowerback 12.9971 -0.0524557 -1.93893
upperback -4.07492 -0.395564 0.0271007
thorax -11.7073 -0.0172667 1.23367
lowerneck -1.04302 -7.72893 -9.07099
upperneck -0.0690649 -10.2741 9.35162
head 1.12328 -5.10654 4.11079
lclavicle -1.04261e-14 -9.6771e-16 0
lhumerus -58.8378 -36.2058 116.744
lradius 82.8384 0 0
lwrist 6.08553 0 0
lhand -26.041 15.079 0
lfingers 7.12502 0 0
lthumb 0.507586 59.6518 0
rclavicle -1.04261e-14 -9.6771e-16 0
rhumerus 71.2343 6.28675 -22.9374
rradius 95.0676 0 0
rwrist -15.296 0 0
rhand -27.9503 -35.7515 0
rfingers 7.12502 0 0
rthumb -1.33843 -65.7243 0
1225
root -0.766904 14.6808 -16.6859 372.761 17.2834 361.699
lfemur 9.3862 -2.40333 -10.164
ltibia 43.9759 0 0
lfoot 3.85978 23.6406 0
ltoes -31.2544 0 0
rfemur -59.7384 -13.4797 25.546
rtibia 79.651 0 0
rfoot -20.3725 -26.0541 0
rtoes 4.17554 0 0
lowerback 12.9146 -0.112662 -1.44764
upperback -4.0696 -0.375987 0.110768
thorax -11.6429 -0.0383795 1.04328
lowerneck -0.990555 -7.58793 -8.90398
upperneck -0.097039 -10.0828 9.15316
head 1.0655 -5.0127 4.04633
lclavicle -1.4456e-14 -8.55444e-16 0
lhumerus -58.9664 -38.103 117.637
lradius 80.4223 0 0
lwrist 0.558033 0 0
lhand -26.6226 12.5659 0
lfingers 7.12502 0 0
lthumb -0.0540719 62.2506 0
rclavicle -1.4456e-14 -8.55444e-16 0
rhumerus 73.3705 6.8715 -21.4801
rradius 95.6425 0 0
rwrist -15.8143 0 0
rhand -27.5248 -36.4647 0
rfingers 7.12502 0 0
rthumb -0.927511 -66.4421 0
1226
root -0.773184 14.7075 -16.5074 372.593 16.9968 361.36
lfemur 8.26614 -2.53738 -10.0863
ltibia 48.1084 0 0
lfoot 3.91682 22.6028 0
ltoes -31.7179 0 0
rfemur -59.4864 -12.889 25.9769
rtibia 79.7085 0 0
rfoot -20.4991 -26.3176 0
rtoes 3.64964 0 0
lowerback 12.8645 -0.158277 -1.00529
upperback -4.04651 -0.349159 0.184494
thorax -11.5795 -0.0536164 0.867468
lowerneck -0.924255 -7.4865 -8.76498
upperneck -0.125485 -9.94669 8.98198
head 1.014 -4.94646 3.99031
lclavicle -1.82755e-14 -9.13855e-16 0
lhumerus -59.3369 -39.9029 118.486
lradius 78.1343 0 0
lwrist -4.63254 0 0
lhand -27.1064 10.1112 0
lfingers 7.12502 0 0
lthumb -0.521246 65.1242 0
rclavicle -1.82755e-14 -9.13855e-16 0
rhumerus 75.5748 7.32458 -19.9648
rradius 96.1979 0 0
rwrist -16.086 0 0
rhand -27.1747 -37.1506 0
rfingers 7.12502 0 0
rthumb -0.589443 -67.131 0
1227
root -0.779464 14.7343 -16.3289 372.384 16.8 361.051
lfemur 7.19174 -2.63601 -9.98636
ltibia 52.1784 0 0
lfoot 3.84845 21.619 0
ltoes -32.1854 0 0
rfemur -59.2518 -12.344 26.3185
rtibia 79.7412 0 0
rfoot -20.5774 -26.4621 0
rtoes 3.08222 0 0
lowerback 12.8421 -0.189496 -0.606275
upperback -4.00833 -0.313678 0.251171
thorax -11.5172 -0.0625105 0.705995
lowerneck -0.849687 -7.41579 -8.6487
upperneck -0.149772 -9.85354 8.83296
head 0.969688 -4.9017 3.9411
lclavicle -2.1868e-14 -1.10927e-15 0
lhumerus -59.8372 -41.5977 119.274
lradius 75.9797 0 0
lwrist -9.46876 0 0
lhand -27.5092 7.76483 0
lfingers 7.12502 0 0
lthumb -0.91029 68.104 0
rclavicle -2.1868e-14 -1.10927e-15 0
rhumerus 77.7657 7.67671 -18.4554
rradius 96.7308 0 0
rwrist -16.1825 0 0
rhand -26.8857 -37.8074 0
rfingers 7.12502 0 0
rthumb -0.31025 -67.7893 0
1228
root -0.785745 14.761 -16.1505 372.137 16.6618 360.763
lfemur 6.10584 -2.69176 -9.8785
ltibia 56.1803 0 0
lfoot 3.67284 20.6794 0
ltoes -32.6461 0 0
rfemur -58.9938 -11.8319 26.5856
rtibia 79.7317 0 0
rfoot -20.6274 -26.507 0
rtoes 2.46477 0 0
lowerback 12.8428 -0.206516 -0.245023
upperback -3.95773 -0.26814 0.313689
thorax -11.4561 -0.0645946 0.558616
lowerneck -0.772414 -7.36695 -8.54984
upperneck -0.165271 -9.79123 8.70095
head 0.933457 -4.87229 3.89703
lclavicle -2.5217e-14 -1.40801e-15 0
lhumerus -60.3554 -43.1798 119.982
lradius 73.9639 0 0
lwrist -13.9332 0 0
lhand -27.848 5.57677 0
lfingers 7.12502 0 0
lthumb -1.23756 71.0212 0
rclavicle -2.5217e-14 -1.40801e-15 0
rhumerus 79.8617 7.95859 -17.0157
rradius 97.238 0 0
rwrist -16.175 0 0
rhand -26.6431 -38.4334 0
rfingers 7.12502 0 0
rthumb -0.0759536 -68.4156 0
1229
root -0.792025 14.7877 -15.972 371.857 16.5511 360.487
lfemur 4.95127 -2.69721 -9.77706
ltibia 60.1083 0 0
lfoot 3.4082 19.7744 0
ltoes -33.0894 0 0
rfemur -58.6716 -11.3403 26.7928
rtibia 79.6624 0 0
rfoot -20.6689 -26.4716 0
rtoes 1.78881 0 0
lowerback 12.8617 -0.209534 0.0840555
upperback -3.89737 -0.211144 0.374938
thorax -11.3966 -0.0594017 0.425089
lowerneck -0.698003 -7.33112 -8.4631
upperneck -0.16735 -9.7476 8.58082
head 0.906213 -4.85211 3.85645
lclavicle -2.83059e-14 -1.77641e-15 0
lhumerus -60.7792 -44.6416 120.593
lradius 72.0924 0 0
lwrist -18.0085 0 0
lhand -28.1398 3.59694 0
lfingers 7.12502 0 0
lthumb -1.51941 73.7071 0
rclavicle -2.83059e-14 -1.77641e-15 0
rhumerus 81.7814 8.20095 -15.7094
rradius 97.7166 0 0
rwrist -16.1348 0 0
rhand -26.4326 -39.0271 0
rfingers 7.12502 0 0
rthumb 0.127425 -69.0083 0
1230
root -0.798306 14.8145 -15.7936 371.548 16.4367 360.214
lfemur 3.67089 -2.6449 -9.69638
ltibia 63.9567 0 0
lfoot 3.0727 18.8943 0
ltoes -33.5046 0 0
rfemur -58.2445 -10.8567 26.9549
rtibia 79.5162 0 0
rfoot -20.7218 -26.3753 0
rtoes 1.04584 0 0
lowerback 12.8941 -0.198746 0.386545
upperback -3.82993 -0.141285 0.43781
thorax -11.3388 -0.0464649 0.305173
lowerneck -0.632017 -7.29946 -8.38319
upperneck -0.15138 -9.7105 8.46741
head 0.888857 -4.83502 3.8177
lclavicle -3.11181e-14 -2.18078e-15 0
lhumerus -60.9968 -45.9753 121.089
lradius 70.3705 0 0
lwrist -21.6771 0 0
lhand -28.4014 1.87526 0
lfingers 7.12502 0 0
lthumb -1.77219 75.9929 0
rclavicle -3.11181e-14 -2.18078e-15 0
rhumerus 83.4434 8.4345 -14.6005
rradius 98.1635 0 0
rwrist -16.1332 0 0
rhand -26.2396 -39.5867 0
rfingers 7.12502 0 0
rthumb 0.313866 -69.566 0
1231
root -0.804586 14.8412 -15.6151 371.214 16.2876 359.934
lfemur 2.20752 -2.52741 -9.65082
ltibia 67.7199 0 0
lfoot 2.68455 18.0294 0
ltoes -33.8809 0 0
rfemur -57.6719 -10.3683 27.0865
rtibia 79.2755 0 0
rfoot -20.8059 -26.2375 0
rtoes 0.227371 0 0
lowerback 12.9353 -0.174349 0.668031
upperback -3.75808 -0.0571624 0.505195
thorax -11.2828 -0.0253172 0.198626
lowerneck -0.580023 -7.26312 -8.3048
upperneck -0.112731 -9.66777 8.35559
head 0.882293 -4.81489 3.77912
lclavicle -3.3637e-14 -2.58746e-15 0
lhumerus -60.8959 -47.1734 121.452
lradius 68.8036 0 0
lwrist -24.9218 0 0
lhand -28.6498 0.461678 0
lfingers 7.12502 0 0
lthumb -2.01227 77.71 0
rclavicle -3.3637e-14 -2.58746e-15 0
rhumerus 84.766 8.68995 -13.7526
rradius 98.5757 0 0
rwrist -16.2415 0 0
rhand -26.0497 -40.1105 0
rfingers 7.12502 0 0
rthumb 0.497348 -70.0871 0
1232
root -0.810867 14.8679 -15.4367 370.859 16.0724 359.64
lfemur 0.504006 -2.33729 -9.65471
ltibia 71.3921 0 0
lfoot 2.26192 17.1701 0
ltoes -34.2076 0 0
rfemur -56.913 -9.86282 27.2023
rtibia 78.923 0 0
rfoot -20.9412 -26.0776 0
rtoes -0.67509 0 0
lowerback 12.9806 -0.136538 0.934097
upperback -3.68449 0.0426279 0.579984
thorax -11.229 0.00450847 0.105205
lowerneck -0.547585 -7.21325 -8.22264
upperneck -0.0467713 -9.60726 8.24021
head 0.887422 -4.78561 3.73905
lclavicle -3.58462e-14 -2.96278e-15 0
lhumerus -60.3646 -48.2282 121.664
lradius 67.3971 0 0
lwrist -27.7249 0 0
lhand -28.9021 -0.593872 0
lfingers 7.12502 0 0
lthumb -2.25599 78.6896 0
rclavicle -3.58462e-14 -2.96278e-15 0
rhumerus 85.668 8.99801 -13.2296
rradius 98.9501 0 0
rwrist -16.5309 0 0
rhand -25.8484 -40.597 0
rfingers 7.12502 0 0
rthumb 0.691851 -70.5701 0
1233
root -0.817147 14.8947 -15.2582 370.488 15.7601 359.321
lfemur -1.49681 -2.0671 -9.72241
ltibia 74.9676 0 0
lfoot 1.82301 16.3067 0
ltoes -34.474 0 0
rfemur -55.927 -9.32753 27.3171
rtibia 78.4413 0 0
rfoot -21.1473 -25.9149 0
rtoes -1.67004 0 0
lowerback 13.0252 -0.0855107 1.19033
upperback -3.61183 0.159488 0.665067
thorax -11.1774 0.0434791 0.024669
lowerneck -0.540268 -7.141 -8.13142
upperneck 0.0511281 -9.51681 8.11615
head 0.905146 -4.74104 3.69585
lclavicle -3.77289e-14 -3.27305e-15 0
lhumerus -59.2907 -49.132 121.708
lradius 66.1565 0 0
lwrist -30.0692 0 0
lhand -29.175 -1.24145 0
lfingers 7.12502 0 0
lthumb -2.5197 78.763 0
rclavicle -3.77289e-14 -3.27305e-15 0
rhumerus 86.0679 9.3894 -13.0954
rradius 99.2837 0 0
rwrist -17.0728 0 0
rhand -25.6212 -41.0445 0
rfingers 7.12502 0 0
rthumb 0.911353 -71.0135 0
